<svg width="75" height="23" viewBox="0 0 75 23" fill="none" xmlns="http://www.w3.org/2000/svg">
<g clip-path="url(#clip0_21_614)">
<path d="M11.0269 9.76276C11.1176 9.68739 11.2239 9.66432 11.3464 9.76276C11.3678 9.78292 11.3857 9.80701 11.3977 9.83364L13.332 14.1217C13.4082 14.3126 13.4119 14.5296 13.2645 14.7534C13.103 14.975 12.8998 15.0406 12.6969 15.0392H9.3711C9.30662 15.0386 9.24292 15.025 9.18378 14.9993C9.12465 14.974 9.07076 14.9378 9.02488 14.8928C8.882 14.744 8.83757 14.5552 8.90778 14.3579L10.9754 9.83336C10.9877 9.80682 11.0055 9.78292 11.0269 9.76276ZM3.02441 19.1545C2.97437 19.2432 2.91442 19.326 2.84572 19.4011C2.69366 19.5648 2.522 19.6766 2.34622 19.7426L0.834406 20.2866C0.687885 20.3392 0.552125 20.418 0.433718 20.5191C0.316032 20.6209 0.218445 20.7438 0.145999 20.8815C0.0790655 21.0117 0.0335448 21.1519 0.0111866 21.2965C-0.00784469 21.4241 -0.00118844 21.5267 0.0214991 21.6254C0.0441945 21.7247 0.0833619 21.8194 0.137374 21.9057C0.191533 21.9916 0.259918 22.0675 0.339593 22.1304C0.504593 22.2618 0.708218 22.3244 0.903781 22.323L6.99838 22.3261C7.09566 22.3258 7.1922 22.3092 7.28394 22.2768C7.37565 22.244 7.46121 22.1961 7.53707 22.135C7.68984 22.0123 7.79601 21.841 7.83791 21.6495C7.88094 21.4585 7.85319 21.2049 7.75194 20.9513C7.6975 20.8213 7.6211 20.7016 7.5261 20.5975C7.31666 20.3719 7.0265 20.2474 6.77047 20.0814C6.64896 20.0078 6.56126 19.8894 6.52635 19.7517C6.49113 19.6138 6.51164 19.4675 6.58344 19.3446L7.0235 18.6241C7.0715 18.545 7.13797 18.4784 7.21138 18.4221C7.28478 18.3657 7.36794 18.3212 7.45682 18.2978C7.54588 18.2741 7.63907 18.2906 7.73169 18.2906H14.7065C14.8274 18.2906 14.949 18.3055 15.062 18.3494C15.1759 18.3949 15.2795 18.4628 15.3666 18.5491C15.4537 18.6352 15.5277 18.7362 15.5737 18.8498L16.8069 21.8908C16.8404 21.973 16.8974 22.0451 16.9615 22.1069C17.0975 22.2378 17.2737 22.3096 17.4422 22.3129L24.4807 22.316C24.6124 22.316 24.7444 22.2947 24.8675 22.2477C24.9911 22.2011 25.1047 22.1312 25.202 22.0419C25.4993 21.7717 25.5962 21.3631 25.5176 21.0085C25.4925 20.8973 25.4506 20.7905 25.3933 20.692C25.336 20.5931 25.2639 20.5036 25.1793 20.4267C25.0949 20.3506 24.9998 20.2841 24.8951 20.2396L24.0021 19.8598C23.8366 19.7901 23.6858 19.6883 23.544 19.5778C23.402 19.4673 23.2725 19.3416 23.1578 19.2028C23.043 19.0642 22.9325 18.9187 22.8618 18.7535L15.3148 1.13354C15.2656 1.01879 15.1713 0.928415 15.0764 0.847322C14.8771 0.677822 14.6294 0.586228 14.391 0.583603L7.66044 0.592978C7.55415 0.592637 7.44846 0.60896 7.34722 0.641353C7.24608 0.674466 7.15101 0.723866 7.06578 0.787603C6.98085 0.851165 6.90641 0.928884 6.84631 1.01635C6.78607 1.10416 6.74027 1.20104 6.71066 1.30332C6.64588 1.50826 6.66772 1.7986 6.79128 2.08548C6.8569 2.23305 6.95003 2.36678 7.06569 2.47951C7.18091 2.59229 7.31835 2.68126 7.46582 2.74651L8.339 3.13313C8.42694 3.17204 8.51535 3.21038 8.59428 3.26542C8.67333 3.32028 8.74487 3.38524 8.8071 3.45863C8.86916 3.53204 8.9271 3.61117 8.96272 3.70023L9.39041 4.76823C9.48707 5.05417 9.47104 5.37676 9.31344 5.68295L3.02441 19.1545ZM42.6269 13.2924C42.7069 13.355 42.7757 13.4317 42.8614 13.5562C42.9467 13.6815 43.0489 13.8546 43.1473 13.9978C43.2451 14.141 43.3391 14.2538 43.4526 14.3431C43.6848 14.5248 43.9909 14.5999 44.2744 14.5615C44.4189 14.5428 44.5594 14.495 44.686 14.4229C44.8121 14.3502 44.9287 14.2563 45.0136 14.138L47.6267 10.5112C47.7931 10.2737 47.8592 9.9782 47.8319 9.70079C47.8178 9.55897 47.7791 9.42069 47.7176 9.29214C47.6557 9.16368 47.5721 9.04692 47.4704 8.94704C47.1319 8.62454 46.709 8.52798 46.2888 8.63917C46.1531 8.67779 46.025 8.74154 45.7506 8.91461C45.477 9.08767 45.0571 9.36986 44.7754 9.54957C44.4935 9.72948 44.3504 9.80654 44.2007 9.86842C43.8965 9.99039 43.5733 10.0631 43.2545 10.0708H36.5637L36.5613 3.84939L43.2724 3.84685C43.7567 3.84329 44.2589 3.92026 44.7449 4.10898C44.979 4.19917 45.2072 4.30707 45.4166 4.44507L47.4496 5.7841C47.8039 6.02757 48.2367 6.06732 48.6465 5.7422C48.8203 5.58779 49.0128 5.34601 49.1484 5.14032C49.3337 4.84435 49.3622 4.55823 49.2632 4.24876C49.23 4.15267 49.1806 4.06304 49.1226 3.97923L47.2431 1.2616C47.1483 1.12435 47.0348 0.999853 46.9029 0.897947C46.6276 0.68579 46.2961 0.573384 45.9751 0.571228L29.191 0.598322C29.0463 0.598509 28.8999 0.583415 28.7615 0.625509C28.6229 0.667415 28.4943 0.742603 28.3831 0.837478C28.272 0.932543 28.1791 1.04711 28.1091 1.17554C27.9689 1.4347 27.9308 1.73691 28.0022 2.02276C28.038 2.16434 28.0998 2.29807 28.1843 2.41717C28.2689 2.53595 28.3732 2.64226 28.497 2.71857L29.191 3.14645C29.273 3.19621 29.3462 3.25919 29.4076 3.33282C29.5299 3.48256 29.5964 3.67012 29.5958 3.86345L29.6036 18.7684C29.6043 18.9098 29.5793 19.0501 29.53 19.1826C29.4296 19.4355 29.2769 19.6273 28.9351 19.813C28.7734 19.9038 28.5663 20.0032 28.4013 20.1002C28.2361 20.1965 28.1128 20.2904 28.0132 20.4056C27.807 20.6444 27.7145 20.9623 27.7383 21.2584C27.7623 21.5681 27.9071 21.856 28.1414 22.06C28.3819 22.2739 28.6955 22.3592 28.9909 22.3499L45.8076 22.3521C45.9916 22.3521 46.1761 22.3325 46.3525 22.28C46.5293 22.2276 46.6968 22.1476 46.8485 22.0428C47 21.9388 47.1391 21.8134 47.2467 21.664L49.2598 18.8766C49.4817 18.5642 49.5364 18.1875 49.3912 17.814C49.3442 17.6986 49.2788 17.5915 49.1975 17.497C49.1161 17.4031 49.019 17.3225 48.8821 17.2504C48.6071 17.1025 48.1942 17.021 47.8352 17.1188C47.6559 17.1636 47.4923 17.2536 47.3349 17.3513L45.1046 18.7363C44.7229 18.9735 44.2592 19.0417 43.8237 19.1287C43.385 19.2174 42.9386 19.262 42.491 19.2618L36.5613 19.2491L36.5637 13.1506H42.3591C42.4605 13.1507 42.547 13.2307 42.6269 13.2924ZM68.7271 0.928509C68.6501 0.981056 68.5582 1.0073 68.4651 1.00332C68.419 1.00117 68.3735 0.991416 68.2874 0.961228C68.2011 0.931134 68.0747 0.880603 67.9475 0.831853C67.8199 0.783103 67.6911 0.736134 66.9916 0.600478C66.2916 0.464822 65.0205 0.240947 63.747 0.25304C62.4735 0.265134 61.1973 0.513572 59.9954 0.959447C58.794 1.40513 57.6664 2.04798 56.7179 2.78551C55.7693 3.52285 54.9996 4.35479 54.3649 5.27851C53.7301 6.20242 53.2302 7.21811 52.8891 8.28432C52.5481 9.35054 52.3662 10.4674 52.3427 11.5556C52.3191 12.6441 52.4538 13.7035 52.7473 14.7175C53.0407 15.7316 53.4931 16.7 54.0879 17.5683C54.6829 18.4366 55.4205 19.2038 56.0679 19.7614C56.715 20.3181 57.2722 20.665 57.8483 20.9719C58.4243 21.2796 59.0192 21.5489 59.6312 21.7737C60.2427 21.9984 60.8715 22.18 61.7617 22.3311C62.6523 22.4821 63.8049 22.6028 64.9566 22.5864C66.1102 22.5703 67.2579 22.4176 68.3755 22.1315C69.4912 21.8456 70.5722 21.4274 71.4202 21.0306C72.2686 20.6337 72.8839 20.257 73.334 19.9587C73.7844 19.6602 74.0698 19.4395 74.2348 19.301C74.4004 19.1623 74.4458 19.106 74.4829 19.0441C74.5201 18.9822 74.5491 18.9158 74.5683 18.8469C74.587 18.778 74.5957 18.7059 74.603 18.5954C74.6109 18.4842 74.6171 18.3355 74.5901 18.193C74.5633 18.0459 74.4978 17.9086 74.4004 17.7953C74.2969 17.674 74.1506 17.5673 74.055 17.4852C73.8631 17.3185 73.8431 17.2245 73.7997 17.0889C73.7823 17.0201 73.7765 16.9487 73.7762 16.8775L73.7667 14.0243C73.7639 13.6987 73.8822 13.3837 74.0987 13.1405L74.7234 12.4374C74.9219 12.211 75.0127 11.9142 74.9984 11.6355C74.9832 11.3428 74.856 11.0671 74.6432 10.8656C74.4215 10.655 74.1306 10.5529 73.8547 10.554L66.5144 10.555C66.3918 10.555 66.2702 10.5832 66.1558 10.6282C66.0417 10.6736 65.9366 10.7386 65.845 10.8204C65.7536 10.9023 65.6772 10.9996 65.6192 11.1079C65.5032 11.3265 65.468 11.579 65.5201 11.821C65.5462 11.9406 65.5932 12.0557 65.659 12.159C65.7244 12.2632 65.8081 12.3548 65.906 12.4292C66.1801 12.6955 66.5238 12.8817 66.7132 13.0422C66.903 13.2036 66.9782 13.2903 67.0394 13.3876C67.1655 13.5857 67.2207 13.8158 67.2168 14.0398L67.2155 17.8277C67.2155 17.9875 67.1921 18.1472 67.1435 18.2998C67.0947 18.4522 67.0222 18.596 66.9286 18.7258C66.8345 18.8559 66.7213 18.971 66.5927 19.0672C66.4643 19.1635 66.3216 19.2418 65.9879 19.3288C65.6541 19.4165 65.1289 19.5119 64.6028 19.5111C64.0768 19.5103 63.5494 19.4125 63.0522 19.2316C62.5544 19.051 62.091 18.7867 61.682 18.4503C61.2752 18.1152 60.9281 17.708 60.667 17.3072C60.4059 16.9056 60.2305 16.5085 60.0747 16.1055C59.9189 15.7033 59.7835 15.2935 59.6691 14.8777C59.5547 14.4626 59.463 14.0406 59.3884 13.3367C59.3145 12.6336 59.2577 11.6483 59.3399 10.6732C59.4221 9.69798 59.6421 8.73254 59.983 7.81107C60.3241 6.88951 60.7852 6.01201 61.2182 5.38839C61.6507 4.76476 62.0548 4.39501 62.5121 4.11114C63.4175 3.54489 64.5521 3.32523 65.6083 3.54892C66.1317 3.65851 66.6307 3.87423 67.1554 4.18407C67.6801 4.49373 68.2301 4.89751 68.7679 5.31507C69.3057 5.73264 69.8316 6.16398 70.3404 6.61417C70.4504 6.72688 70.5788 6.82008 70.7201 6.88979C71.0052 7.02913 71.3294 7.06643 71.6387 6.99545C71.948 6.92413 72.2232 6.74831 72.418 6.49764C72.6126 6.24687 72.7151 5.93689 72.7084 5.61957C72.6787 5.08115 72.5729 4.54966 72.3941 4.04092C72.3044 3.78704 72.2077 3.53373 72.073 3.30067L70.4042 0.41204C70.353 0.3232 70.2859 0.244568 70.2063 0.180103C69.9596 -0.0109599 69.6467 -0.0552098 69.3391 0.0931964C69.2467 0.13904 69.1625 0.201665 69.0897 0.30779C69.0169 0.413822 68.9558 0.563634 68.9151 0.659165C68.8744 0.754884 68.8542 0.79679 68.8268 0.833728C68.7991 0.870648 68.7654 0.902682 68.7271 0.928509Z" fill="#F7E98C"/>
</g>
<defs>
<clipPath id="clip0_21_614">
<rect width="75" height="22.59" fill="white"/>
</clipPath>
</defs>
</svg>
