<svg width="100" height="22" viewBox="0 0 100 22" fill="none" xmlns="http://www.w3.org/2000/svg">
<g clip-path="url(#clip0_18_606)">
<path d="M10.6773 0.00268555C4.78598 0.00268555 0 4.78867 0 10.68C0 16.5714 4.78598 21.3573 10.6773 21.3573C16.5687 21.3573 21.3547 16.5714 21.3547 10.68C21.3547 4.78867 16.5687 0.00268555 10.6773 0.00268555ZM10.6773 20.2873C5.37394 20.2873 1.07008 15.9716 1.07008 10.68C1.07008 5.38839 5.37394 1.07277 10.6773 1.07277C15.9807 1.07277 20.2846 5.38839 20.2846 10.68C20.2846 15.9716 15.9807 20.2873 10.6773 20.2873Z" fill="#F7E98C"/>
<path d="M14.4873 3.83625C14.4521 3.81273 14.405 3.80097 14.358 3.80097C14.2169 3.80097 14.111 3.90681 14.111 4.04792V7.38752C14.111 7.50511 14.017 7.59919 13.8994 7.59919H7.43182C7.31423 7.59919 7.23192 7.50511 7.22016 7.38752V4.04792C7.22016 4.00088 7.2084 3.9656 7.18488 3.91856C7.11433 3.80097 6.96146 3.76569 6.84387 3.83625C4.45675 5.30615 3.01038 7.85789 3.01038 10.6801C3.01038 13.5023 4.45675 16.054 6.86738 17.5239C6.90266 17.5474 6.9497 17.5592 6.99674 17.5592C7.13785 17.5592 7.24368 17.4534 7.24368 17.3123V13.9727C7.24368 13.8551 7.33775 13.7728 7.45534 13.761H13.9229C14.0405 13.761 14.1346 13.8551 14.1346 13.9727V17.3123C14.1346 17.3593 14.1463 17.3946 14.1698 17.4416C14.2404 17.5592 14.3933 17.5945 14.5108 17.5239C16.9215 16.054 18.3679 13.5023 18.3679 10.6801C18.3679 7.85789 16.898 5.30615 14.4873 3.83625ZM5.99721 14.8664L6.03248 15.2662L5.77378 14.9487C3.78648 12.444 3.78648 8.90445 5.77378 6.39975L5.99721 6.11753L6.03248 6.08225L5.99721 6.49382C5.96193 6.82308 5.95017 7.1641 5.95017 7.50511V13.8433C5.95017 14.1843 5.97369 14.5253 5.99721 14.8664ZM14.111 12.2793C14.111 12.3969 14.017 12.491 13.8994 12.491H7.43182C7.31423 12.491 7.23192 12.3969 7.22016 12.2793V9.08084C7.22016 8.96325 7.31423 8.86918 7.43182 8.86918H13.8994C14.017 8.86918 14.111 8.96325 14.111 9.08084V12.2793ZM15.5692 14.9487L15.3105 15.2662L15.3457 14.8664C15.381 14.5371 15.3928 14.1961 15.3928 13.8551V7.50511C15.3928 7.1641 15.381 6.82308 15.3457 6.49382L15.334 6.31744L15.3222 6.12929V6.08225L15.5692 6.39975C16.5334 7.59919 17.0626 9.12788 17.0626 10.6683C17.0626 12.2088 16.5334 13.7492 15.5692 14.9487Z" fill="#F7E98C"/>
<path d="M37.4647 10.4918C37.4059 10.4682 37.3354 10.4447 37.3354 10.3742C37.3354 10.3271 37.3589 10.2919 37.4059 10.2683C37.4883 10.2331 39.5226 9.50399 39.5226 7.10512C39.5226 4.43579 37.7234 2.8483 34.6896 2.8483H27.3401V18.535H35.3598C37.6999 18.535 40.2164 16.877 40.2164 14.2077C40.2164 11.6559 38.2879 10.7622 37.4647 10.4918ZM31.0442 6.05855C31.0442 5.99976 31.0913 5.95272 31.1501 5.95272H34.0663C35.0306 5.95272 35.6891 6.59948 35.6891 7.56373C35.6891 8.31631 35.1011 9.1277 33.9958 9.1277H31.1501C31.0913 9.1277 31.0442 9.08066 31.0442 9.02186V6.05855ZM34.0663 15.4424H31.1501C31.0913 15.4424 31.0442 15.3953 31.0442 15.3365V12.2086C31.0442 12.1498 31.0913 12.1028 31.1501 12.1028H33.9958C35.3951 12.1028 36.1947 12.7025 36.1947 13.7608C36.1947 14.8544 35.4539 15.4424 34.0663 15.4424ZM65.04 9.09242L64.4756 8.97483C63.2056 8.70437 61.9709 8.36335 61.9709 7.26975C61.9709 6.17614 62.9939 5.68226 64.0052 5.68226C65.1929 5.68226 66.3688 6.21142 67.2625 7.12864L69.5908 4.82384C68.5913 3.71848 66.8156 2.44849 63.9464 2.44849C60.4892 2.44849 58.1609 4.41227 58.1609 7.3403C58.1609 10.433 60.595 11.5971 62.6411 12.0322L63.1938 12.1498C65.1811 12.5731 66.1218 12.8906 66.1218 14.0195C66.1218 15.0308 65.2164 15.7011 63.8758 15.7011C62.3001 15.7011 60.9008 15.0073 59.8424 13.702L57.4553 16.0421C58.7253 17.5473 60.4069 18.9113 63.9229 18.9113C66.9215 18.9113 69.9671 17.171 69.9671 13.8314C69.9553 10.4094 67.627 9.63334 65.04 9.09242ZM96.0254 2.8483V8.58678C96.0254 8.64557 95.9784 8.69261 95.9196 8.69261H91.0983C91.0395 8.69261 90.9925 8.64557 90.9925 8.58678V2.8483H87.0414V18.535H90.9925V12.3732C90.9925 12.3144 91.0395 12.2674 91.0983 12.2674H95.9196C95.9784 12.2674 96.0254 12.3144 96.0254 12.3732V18.535H100V2.8483H96.0254ZM79.0922 15.3248C77.3166 15.3248 75.3998 13.8431 75.3998 10.5858C75.3998 7.61076 77.199 6.05855 78.9746 6.05855C80.2681 6.05855 81.1736 6.59948 81.8909 7.79891L84.9248 5.78809C83.3726 3.50681 81.5264 2.472 78.9511 2.472C73.9064 2.472 71.6487 6.55244 71.6487 10.5858C71.6487 15.4894 74.6355 18.9113 78.9041 18.9113C82.079 18.9113 83.5254 17.7472 85.0424 15.5952L81.985 13.5374C81.3029 14.6427 80.5621 15.3248 79.0922 15.3248ZM49.0946 2.44849C44.7789 2.44849 41.8862 5.75281 41.8862 10.6799C41.8862 15.607 44.7789 18.9113 49.0946 18.9113C53.4102 18.9113 56.3029 15.607 56.3029 10.6799C56.3029 5.75281 53.4102 2.44849 49.0946 2.44849ZM49.0946 15.3248C46.9779 15.3248 45.6138 13.5021 45.6138 10.6799C45.6138 7.86947 46.9779 6.05855 49.0946 6.05855C51.223 6.05855 52.5988 7.86947 52.5988 10.6799C52.5988 13.5021 51.223 15.3248 49.0946 15.3248Z" fill="#F7E98C"/>
</g>
<defs>
<clipPath id="clip0_18_606">
<rect width="100" height="21.36" fill="white"/>
</clipPath>
</defs>
</svg>
