<svg width="100" height="22" viewBox="0 0 100 22" fill="none" xmlns="http://www.w3.org/2000/svg">
<g clip-path="url(#clip0_18_557)">
<path d="M98.3591 0.00379257C97.5005 -0.0246359 96.7556 0.65261 96.7181 1.55836C96.7556 2.49866 97.5005 3.17591 98.3591 3.1993C99.2533 3.17591 99.9986 2.49866 100 1.55836C99.9986 0.65297 99.2533 -0.0246359 98.3591 0.00379257Z" fill="#F7E98C"/>
<path d="M98.3591 0.26325C99.105 0.242378 99.6769 0.813827 99.6545 1.55873C99.6769 2.34249 99.105 2.90962 98.3591 2.94057C97.6487 2.90962 97.0773 2.34249 97.0636 1.55873C97.0773 0.813467 97.6487 0.242378 98.3591 0.26325Z" fill="#1E1E1E"/>
<path d="M98.0136 1.73137H98.3591L98.8773 2.50866H99.1364L98.6182 1.645C98.9104 1.6522 99.118 1.50826 99.1364 1.21318C99.118 0.81374 98.9021 0.652885 98.4454 0.694988H97.7545V2.50866H98.0136V1.73137Z" fill="#F7E98C"/>
<path d="M98.0136 0.867432H98.4454C98.6182 0.889743 98.8258 0.932205 98.7909 1.12653C98.8258 1.44428 98.6142 1.46119 98.3591 1.47199H98.0136V0.867432Z" fill="#1E1E1E"/>
<path d="M11.303 0.17652C10.1677 0.174721 8.86321 1.38923 8.19388 2.76747L1.28467 17.795C0.721501 18.9321 1.35125 20.8214 2.75288 21.0769H1.97559C0.00179197 21.0463 -0.313081 18.6173 0.248293 17.4495L7.07114 2.76747C8.1435 0.39999 10.1677 0.175081 11.303 0.17652Z" fill="#F7E98C"/>
<path d="M15.4486 0.176524C14.306 0.174725 12.6867 1.38923 12.0803 2.76748L5.08475 17.795C4.54496 18.9321 5.17471 20.8214 6.55295 21.0769H4.39383C2.43082 21.0463 2.11595 18.6173 2.66652 17.4495L9.48937 2.76748C10.5725 0.399634 12.5967 0.174725 13.7213 0.176524H15.4486Z" fill="#F7E98C"/>
<path d="M20.1123 0.176524C19.0291 0.174725 17.4098 1.38923 16.744 2.76748L9.83483 17.795C9.26806 18.9321 9.8978 20.8214 11.303 21.0769H8.28026C6.29926 21.0463 5.98438 18.6173 6.55295 17.4495L13.3758 2.76748C14.441 0.399634 16.4651 0.174725 17.6077 0.176524H20.1123Z" fill="#F7E98C"/>
<path d="M26.4169 0.176524C25.2816 0.174725 23.6622 1.38923 23.0487 2.76748L16.0531 17.795C15.5205 18.9321 16.1503 20.8214 17.5213 21.0769H12.944C10.9774 21.0463 10.6625 18.6173 11.2167 17.4495L18.0395 2.76748C19.1191 0.399634 21.1433 0.174725 22.2714 0.176524H26.4169Z" fill="#F7E98C"/>
<path d="M20.7168 21.0769C18.7592 21.0463 18.4443 18.6173 18.9895 17.4495L25.8124 2.76748C26.9009 0.399634 28.9251 0.174725 30.0443 0.176524H41.1854L38.6808 5.70389H31.9443L30.9079 7.86302H37.6444L35.0534 13.3904H28.317L27.3669 15.5495H34.0171L31.5125 21.0769H20.7168ZM60.5312 0.176524H67.9585L64.3312 7.86338H67.1813L70.7222 0.176524H78.1496L68.5631 21.0769H61.0493L64.6767 13.3907H61.8266L58.1993 21.0769H50.7719L60.5312 0.176524ZM51.1174 17.8817C50.6963 18.8875 49.5268 21.0467 46.1945 21.0772H36.0035C34.053 21.0467 33.7382 18.6176 34.2762 17.4499L41.099 2.76784C42.1948 0.399994 44.2189 0.175085 45.3309 0.176884H56.1265C57.0837 0.175085 58.838 1.34461 57.8538 3.54512L55.3492 8.8134H48.3537L49.8219 5.70425H47.2309L42.5672 15.5499H45.1582L46.7127 12.268H53.7947L51.1174 17.8817ZM73.2268 21.0769C71.208 21.0463 70.8932 18.6173 71.4131 17.4495L78.236 2.76748C79.3497 0.399634 81.3739 0.174725 82.4679 0.176524H93.9544C94.8685 0.174725 96.6228 1.34425 95.5954 3.54476L88.9453 17.8814C88.4811 18.8872 87.3115 21.0463 83.9361 21.0769H73.2268Z" fill="#F7E98C"/>
<path d="M79.7906 15.55H82.5542L87.218 5.70435H84.3679L79.7906 15.55Z" fill="#1E1E1E"/>
</g>
<defs>
<clipPath id="clip0_18_557">
<rect width="100" height="21.08" fill="white"/>
</clipPath>
</defs>
</svg>
