<svg width="86" height="28" viewBox="0 0 86 28" fill="none" xmlns="http://www.w3.org/2000/svg">
<g clip-path="url(#clip0_18_594)">
<path fill-rule="evenodd" clip-rule="evenodd" d="M52.759 5.11042C52.2786 4.33275 51.7852 3.92083 50.7974 3.92083C48.9666 3.92083 48.1905 5.70184 48.1905 7.27482C48.1905 8.82237 48.8665 10.5977 50.7093 10.5977C51.6332 10.5977 52.304 10.0815 52.6324 9.26334H52.6708V12.5618H53.6555V4.08218H53.1507L52.759 5.11042ZM65.3853 6.50493C64.5931 6.50493 63.6495 6.5428 62.932 6.88261C62.2316 7.19751 61.7564 7.89062 61.7564 8.65999C61.7564 9.9331 62.781 10.5992 63.9763 10.5992C64.9957 10.5992 65.7625 10.1972 66.2154 9.27787L66.328 10.4783H67.3028C67.1762 10.0716 67.1637 9.60263 67.1637 9.13468V6.64397C67.1637 5.9161 67.1637 5.11405 66.6398 4.54909C66.1646 3.99606 65.3724 3.92083 64.6792 3.92083C63.5089 3.92083 62.0983 4.33535 61.9224 5.66501L62.8412 5.81597C63.0176 4.93818 63.7854 4.68761 64.5911 4.68761C65.7251 4.68761 66.2154 5.11405 66.2154 6.22997V6.50545L65.3853 6.50493ZM83.5207 6.50493C82.7285 6.50493 81.7838 6.5428 81.0668 6.88261C80.3664 7.19751 79.8923 7.89062 79.8923 8.65999C79.8923 9.9331 80.9169 10.5992 82.1111 10.5992C83.1306 10.5992 83.8973 10.1972 84.3502 9.27787L84.4628 10.4783H85.4376C85.3121 10.0716 85.2986 9.60263 85.2986 9.13468V6.64397C85.2986 5.9161 85.2986 5.11405 84.7746 4.54909C84.3004 3.99606 83.5072 3.92083 82.8151 3.92083C81.6437 3.92083 80.2331 4.33535 80.0572 5.66501L80.976 5.81597C81.1524 4.93818 81.9202 4.68761 82.7269 4.68761C83.86 4.68761 84.3502 5.11405 84.3502 6.22997V6.50545L83.5207 6.50493ZM35.9958 14.5477H38.0892L32.7347 26.8343H30.7571L25.4037 14.5477H27.4773L31.7366 25.0206H31.775L35.9958 14.5477ZM41.052 26.8353H39.1952V14.5477H41.052V26.8353ZM44.9948 26.8353H43.1385V14.5477H44.9948V20.5024L51.6763 14.5477H54.249L48.5075 19.5105L55.2092 26.8353H52.7896L47.487 20.5662L44.9948 22.5231V26.8353ZM58.24 26.8353H56.3838V14.5477H58.24V26.8353ZM69.7748 14.5477H71.5828V26.8353H69.4874L61.9898 16.9072H61.9515V26.8353H60.145V14.5477H62.5169L69.7364 24.4743H69.7748V14.5477ZM79.6059 20.2778H85.6472V26.8358H84.4405L83.9995 25.2499C83.06 26.4089 81.3324 27.158 79.4529 27.158C77.0929 27.158 75.9417 26.3928 75.2314 25.7801C73.12 24.0006 73.0619 21.8964 73.0619 20.6015C73.0619 17.6024 75.0966 14.2261 79.5862 14.2261C82.1578 14.2261 85.0143 15.5262 85.4163 18.2882H83.6156C83.0211 16.143 81.0066 15.6974 79.4907 15.6974C77.0156 15.6974 74.9819 17.4644 74.9819 20.6866C74.9819 23.1794 75.9028 25.7458 79.567 25.7458C80.258 25.7458 81.3708 25.6779 82.3882 24.9593C83.5969 24.1033 83.9041 23.0077 83.9041 21.6905H79.6059V20.2778ZM31.6038 10.4783V6.38042H26.959V10.4783H25.8732V1.84204H26.959V5.4357H31.6038V1.84204H32.6891V10.4783H31.6038ZM39.0022 10.4783V9.20887H38.9768C38.6619 10.0011 37.8936 10.5992 37.0116 10.5992C36.3818 10.5992 35.7769 10.3746 35.3728 9.889C34.9437 9.36036 34.868 8.62834 34.868 7.97207V4.08218H35.8526V7.97207C35.8526 8.33834 35.8781 8.8177 36.0669 9.1461C36.2557 9.49939 36.6967 9.75204 37.0998 9.75204C37.629 9.75204 38.0824 9.51236 38.4134 9.0994C38.8025 8.61952 38.9031 8.08932 38.9031 7.48285V4.0827H39.8878V10.4783H39.0022ZM42.1202 8.57957C42.2592 9.44699 43.2807 9.77383 44.0495 9.77383C44.7297 9.77383 45.5986 9.53519 45.5986 8.71757C45.5986 8.03848 44.9055 7.85016 44.3515 7.74951L43.3061 7.56119C42.3225 7.37287 41.4239 6.91996 41.4239 5.78848C41.4239 4.46972 42.6509 3.92031 43.8228 3.92031C44.9688 3.92031 46.0381 4.34469 46.3519 5.52442L45.4482 5.71274C45.1961 5.00874 44.5414 4.70732 43.8099 4.70732C43.2309 4.70732 42.4496 4.93352 42.4496 5.63751C42.4496 6.32906 43.0291 6.48003 43.5956 6.56822L44.5279 6.73112C44.9937 6.81932 45.4731 6.90699 45.8622 7.17158C46.1007 7.32914 46.2958 7.54402 46.4296 7.79654C46.5635 8.04906 46.6319 8.33114 46.6284 8.61693C46.6284 10.0649 45.221 10.5972 43.9738 10.5972C42.7266 10.5972 41.4878 10.0778 41.1599 8.76789L42.1202 8.57957Z" fill="#F7E98C"/>
<path fill-rule="evenodd" clip-rule="evenodd" d="M52.6578 7.45067C52.6578 7.91603 52.595 8.3819 52.3667 8.79693C52.0881 9.33803 51.5948 9.75307 50.9494 9.75307C49.6332 9.75307 49.2794 8.30616 49.2794 7.26131C49.2794 6.22944 49.6462 4.70679 50.9624 4.70679C51.393 4.70679 51.848 4.9335 52.1265 5.24789C52.5307 5.70131 52.6573 6.33008 52.6573 6.90905V7.45067H52.6578Z" fill="#1E1E1E"/>
<path fill-rule="evenodd" clip-rule="evenodd" d="M58.6991 10.4784H57.6673L55.3918 4.08228H56.486L58.2711 9.28886L60.0195 4.08228H60.8998L58.6991 10.4784Z" fill="#F7E98C"/>
<path fill-rule="evenodd" clip-rule="evenodd" d="M66.2164 7.66436C66.2164 8.79896 65.3988 9.83291 64.191 9.83291C63.486 9.83291 62.8069 9.50503 62.8069 8.71076C62.8069 7.38681 64.3918 7.24829 65.3988 7.24829H66.2164V7.66436Z" fill="#1E1E1E"/>
<path fill-rule="evenodd" clip-rule="evenodd" d="M69.6098 4.08227V5.57379H69.6341C69.9371 4.7069 70.4782 3.90796 71.5106 3.90796L71.8753 3.93286V4.86876H71.6735C70.9187 4.86876 70.3895 5.23399 70.0248 5.87729C69.7602 6.34472 69.7099 6.74885 69.7099 7.25416V10.4774H68.7252V4.08227H69.6098ZM74.3333 5.2703H74.3577C74.7224 4.47655 75.4389 3.92249 76.3437 3.92249C77.1099 3.92249 77.7522 4.24984 78.1563 4.91752C78.4847 5.45966 78.4593 6.3167 78.4593 6.94651V10.4784H77.4746V6.53096C77.4746 6.15277 77.4866 5.67392 77.2982 5.34604C77.0845 4.98082 76.6202 4.76656 76.2051 4.76656C75.6905 4.76656 75.2251 5.00572 74.8859 5.39844C74.4713 5.90374 74.3832 6.48479 74.3832 7.12861V10.4784H73.3985V4.08227H74.3339V5.2703H74.3333Z" fill="#F7E98C"/>
<path fill-rule="evenodd" clip-rule="evenodd" d="M84.3508 7.66436C84.3508 8.79896 83.5332 9.83291 82.3254 9.83291C81.6214 9.83291 80.9413 9.50503 80.9413 8.71076C80.9413 7.38681 82.5272 7.24829 83.5332 7.24829H84.3508V7.66436Z" fill="#1E1E1E"/>
<path fill-rule="evenodd" clip-rule="evenodd" d="M83.0589 13.9293V12.5312H82.6252V12.3392H83.7329V12.5312H83.3002V13.9293H83.0589ZM84.7985 13.6118L85.2482 12.3392H85.6052V13.9293H85.3639V12.539H85.3556L84.8685 13.9293H84.6942L84.1904 12.539H84.1837V13.9293H83.9922V12.3392H84.3388L84.7985 13.6118ZM21.1496 7.2499C23.7326 5.52804 22.7641 2.62281 22.7641 2.62281C21.3873 1.93792 19.9446 1.39439 18.4581 1.00055C18.5717 2.1227 18.6578 4.64973 17.1533 4.77527C17.1533 4.77527 14.1936 4.82923 14.0323 3.21527V0.270097C12.5852 0.171265 11.1324 0.193303 9.68898 0.335983V3.21527C9.52764 4.82923 6.56794 4.77527 6.56794 4.77527C5.11895 4.6544 5.14541 2.30635 5.25073 1.13025C2.64069 1.81194 1.02622 2.62281 1.02622 2.62281C1.02622 2.62281 0.0576334 5.52856 2.64017 7.2499C2.64017 7.2499 0.0576331 8.64908 0.380321 16.0735C0.380321 16.0735 0.595618 27.6954 7.58995 27.6954C7.58995 27.6954 9.74138 27.9113 16.1988 27.6954C23.1931 27.6954 23.4084 16.0735 23.4084 16.0735C23.7321 8.64856 21.1496 7.2499 21.1496 7.2499Z" fill="#F7E98C"/>
<path fill-rule="evenodd" clip-rule="evenodd" d="M15.6234 7.30324C15.6234 7.30324 20.789 6.38861 20.0891 16.5574C20.0891 16.5574 20.0891 24.7367 15.5694 24.7901H8.39767C3.87797 24.7362 3.87797 16.5574 3.87797 16.5574C3.17864 6.38913 8.34423 7.30324 8.34423 7.30324H15.6234Z" fill="#1E1E1E"/>
<path fill-rule="evenodd" clip-rule="evenodd" d="M14.5853 9.0791V14.1373H9.20491V9.0791H6.08386V23.1762H9.20491V17.6874H14.5853V23.1762H17.7063V9.0791H14.5853Z" fill="#F7E98C"/>
</g>
<defs>
<clipPath id="clip0_18_594">
<rect width="86" height="28" fill="white"/>
</clipPath>
</defs>
</svg>
