<svg width="121" height="23" viewBox="0 0 121 23" fill="none" xmlns="http://www.w3.org/2000/svg">
<g clip-path="url(#clip0_18_554)">
<path d="M46.3079 6.27947H43.4764V13.1175C43.4764 15.052 42.7004 16.0316 41.1099 16.0316C40.8506 16.0368 40.593 15.9893 40.3527 15.8918C40.1124 15.7944 39.8944 15.6491 39.712 15.4648C39.3047 15.0575 39.1066 14.3751 39.1066 13.39V6.27947H36.2971V13.6266C36.2971 15.2446 36.6658 16.4004 37.428 17.1626C38.1545 17.8918 39.0433 18.2468 40.5127 18.2468C41.5391 18.2468 42.7967 17.5478 43.5149 16.6288V17.9386H46.3106L46.3079 6.27947ZM90.3137 9.4247C90.3137 8.5524 90.022 7.82044 89.4497 7.24533C88.6434 6.43632 87.4877 5.96302 85.8174 5.97127C84.1471 5.97953 81.3265 6.32074 81.0018 9.49625H83.8279C83.7894 8.01581 85.6715 8.14515 85.6715 8.14515C86.2714 8.14515 86.8218 8.33502 87.2208 8.65697C87.4657 8.85234 87.6308 9.15503 87.65 9.64209C87.6803 10.4318 87.3033 10.8116 84.6534 11.0675C82.6116 11.2656 80.1763 11.8215 80.1763 14.7548C80.1763 16.8186 81.8824 18.244 84.2076 18.244C85.8944 18.244 86.8685 17.823 87.7326 16.8516L87.8702 17.9358H90.5862V17.4983C90.2367 17.2231 90.3137 16.0646 90.3137 16.0646V9.4247ZM82.9858 14.664C82.9143 13.789 83.4206 13.1588 84.7552 12.9304C85.1019 12.8616 85.4652 12.8286 85.8091 12.7763C86.3402 12.6993 86.9676 12.5507 87.5042 12.1874V13.9733C87.5042 15.418 86.0705 15.9601 85.0221 15.9436C83.9682 15.9243 83.0629 15.5391 82.9858 14.664ZM69.3097 21.0893L69.3069 6.28772L66.624 6.27947V7.73789C65.903 6.74176 64.8932 5.97127 63.4017 5.97127C60.0391 5.97127 58.0853 8.34602 58.0853 12.1709C58.0853 14.1192 58.7045 15.8555 59.7804 16.9342C60.65 17.801 61.6351 18.244 62.9834 18.244C64.5134 18.244 65.6306 17.5451 66.4809 16.4994V21.0976L69.3097 21.0893ZM63.7484 15.9436C63.4106 15.957 63.074 15.8967 62.7618 15.767C62.4496 15.6373 62.1694 15.4412 61.9405 15.1923C61.2691 14.5209 60.9004 13.4202 60.9004 12.0994C60.9004 10.8391 61.3049 9.71364 62.0093 9.00644C62.5184 8.49737 63.0137 8.23595 63.7484 8.23595C65.3967 8.23595 66.2635 9.29262 66.5167 11.2106C66.5552 11.4995 66.5717 12.5617 66.5525 12.7571C66.3681 14.8099 65.4875 15.9436 63.7484 15.9436ZM22.1174 17.9358H25.1828V11.018H31.6109V17.9358H34.6735V2.38576H31.6109V8.33502H25.1828V2.38576H22.1174V17.9358ZM52.5819 15.9959C51.3766 16.0261 50.43 15.5033 50.2539 14.4549H47.4086C47.5434 17.402 50.5015 18.2881 52.5461 18.2413C54.5906 18.1972 55.518 17.7157 56.4315 16.7994C57.0727 16.1582 57.3974 15.3464 57.3974 14.3888C57.3974 12.1132 55.6748 11.3702 53.7101 10.9024L53.0937 10.762C51.5665 10.4649 50.3144 10.1594 50.386 9.27611C50.4575 8.3928 51.4151 8.20293 52.1636 8.18092C52.9121 8.15891 53.5395 8.27723 53.9825 9.1743H56.9159C56.6242 6.91512 54.5494 5.9355 52.3425 5.96852C50.1768 6.00154 47.6012 6.85733 47.6012 9.36692C47.6012 11.7307 49.2358 12.4489 51.2005 12.8726C51.4647 12.9332 51.7316 12.9882 51.993 13.0432C53.4597 13.3514 54.5659 13.6431 54.5879 14.6117C54.6099 15.5858 53.7926 15.9656 52.5819 15.9959ZM80.9248 6.27947H77.9969L75.4929 15.2474L72.9035 6.27947H69.849L73.8941 17.9358H76.9183L80.9248 6.27947ZM94.7028 12.3718C94.7028 11.106 94.7853 10.1484 95.3659 9.39994C95.809 8.83308 96.5877 8.27173 97.3637 8.29374C98.1369 8.31575 98.5855 8.4726 98.5855 8.4726V5.95751C98.5855 5.95751 97.8397 5.7814 97.0225 5.90248C96.1034 6.03731 95.0137 7.07747 94.5404 8.31851V6.28222H91.8767V17.9386H94.7055L94.7028 12.3718ZM109.642 9.96955C109.642 7.47647 108.115 5.97127 105.52 5.97127C104.136 5.97127 103.098 6.70599 102.259 8.02682V6.27947H99.5954V17.9358H102.405V11.062C102.405 10.2227 102.584 9.44672 103.109 8.92114C103.572 8.45609 104.24 8.19468 105.044 8.21119C106.343 8.23595 106.78 8.98167 106.832 10.6492V17.9358H109.642V9.96955ZM9.53364 19.8896C7.31849 19.8896 6.58102 19.8896 5.48308 19.5869C5.10334 19.452 4.42366 19.2649 3.9311 18.4862C3.02302 16.9314 3.02302 14.0146 3.02302 12.614C3.02302 11.2133 3.02302 8.72851 3.9311 7.1958C4.42366 6.40054 5.10334 6.21067 5.48308 6.07859C6.58102 5.79516 7.31849 5.79516 9.53364 5.79516C11.691 5.79516 12.4285 5.79516 13.5457 6.07859C13.9227 6.21067 14.5858 6.40054 15.0399 7.1958C16.025 8.73127 16.025 11.3839 16.025 12.7846C16.025 14.1467 16.025 16.9314 15.0399 18.4862C14.5858 19.2649 13.9227 19.452 13.5457 19.5841C12.4285 19.8896 11.6883 19.8896 9.53364 19.8896ZM9.53364 13.6156C11.3883 13.6156 11.3608 13.6156 11.3608 14.221V18.0404H13.9722V7.46547H11.3608V10.641C11.3608 11.2656 11.3883 11.2656 9.53364 11.2656C7.64044 11.2656 7.6487 11.2656 7.6487 10.641V7.46547H5.07307V18.0404H7.6487V14.221C7.6487 13.6156 7.64044 13.6156 9.53364 13.6156ZM9.52263 22.5973C11.4131 22.6055 14.8473 22.7734 16.801 20.6078C17.7531 19.5539 17.9952 18.8659 18.4658 17.3662C18.8813 16.0591 18.8263 15.2832 18.9584 13.8467C18.9969 12.7846 19.0519 11.516 18.6914 9.69713C18.2952 7.67185 17.9925 6.57115 17.0652 5.64382C18.2952 5.01917 18.4658 3.18101 18.2952 1.93172C18.2952 1.93172 17.3513 1.46392 16.7239 1.23003C16.0415 0.974115 14.9271 0.698942 14.9271 0.698942C14.9271 1.68406 15.0426 3.18101 14.3024 3.67357C13.5457 4.10835 11.6883 3.67357 11.3883 2.72697C11.292 2.44079 11.1984 1.45842 11.3883 0.225643C11.1214 0.170608 10.3839 0 9.49512 0C8.52926 0 7.90461 0.170608 7.64044 0.225643C7.77253 1.45842 7.734 2.44354 7.64044 2.72697C7.31849 3.67357 5.48308 4.10835 4.74286 3.67357C3.9311 3.18101 4.12097 1.68406 4.12097 0.698942C4.12097 0.698942 2.92396 0.990626 2.18925 1.26855C1.59212 1.49144 0.6923 1.93172 0.6923 1.93172C0.50243 3.18101 0.6923 5.01917 1.92233 5.64382C0.997744 6.57115 0.6923 7.67185 0.29605 9.69713C-0.0259037 11.516 0.0483932 12.7846 0.0676554 13.8467C0.163966 15.2832 0.163966 16.0619 0.50243 17.3662C0.994992 18.8659 1.28392 19.5676 2.28281 20.6078C4.30534 22.7211 7.62669 22.6 9.52263 22.5973ZM120.676 9.43021C120.676 7.32238 118.838 5.96577 115.99 5.97678C114.32 5.98503 111.502 6.329 111.175 9.50175H114.001C113.962 8.02407 115.847 8.1534 115.847 8.1534C116.45 8.1534 117.187 8.34052 117.586 8.66247C117.831 8.85785 117.993 9.16054 118.015 9.65035C118.049 10.4401 117.669 10.8198 115.019 11.0785C112.974 11.2766 110.542 11.827 110.542 14.7631C110.542 16.8324 112.251 18.255 114.573 18.255C116.257 18.255 117.231 17.8313 118.101 16.8627L118.238 17.9468H120.952V17.5038C120.602 17.2286 120.679 16.0702 120.679 16.0702L120.676 9.43021ZM113.351 14.6695C113.277 13.7945 113.783 13.1671 115.121 12.9359C115.467 12.8671 115.828 12.8341 116.175 12.7818C116.703 12.702 117.33 12.5562 117.87 12.193V13.9788C117.87 15.4235 116.433 15.9656 115.385 15.9491C114.334 15.9298 113.426 15.5473 113.351 14.6695Z" fill="#F7E98C"/>
</g>
<defs>
<clipPath id="clip0_18_554">
<rect width="121" height="22.6028" fill="white"/>
</clipPath>
</defs>
</svg>
