<svg width="100" height="18" viewBox="0 0 100 18" fill="none" xmlns="http://www.w3.org/2000/svg">
<g clip-path="url(#clip0_18_581)">
<path d="M25.1306 0.406377L22.88 9.59338L20.6231 0.406377H14.0032V3.79875C13.2084 0.829713 10.4043 0.0835051 7.8055 0.0411716C4.64059 0.000101767 1.32089 1.37626 1.19831 5.57612H5.57762C5.57762 4.30801 6.54686 3.58202 7.63869 3.59908C8.9782 3.5896 9.59677 4.16269 9.629 5.05864C9.58224 5.83454 9.12542 6.37603 7.6488 6.37603H6.1766V9.42594H7.51359C8.2718 9.42594 9.3295 9.83917 9.3712 10.9247C9.42238 12.2174 8.52453 12.7886 7.42323 12.7981C5.45251 12.7267 5.13406 11.2058 5.13406 9.90109H0.589844C0.609431 10.7794 0.393972 16.5102 7.51864 16.4685C10.9312 16.5001 13.3139 15.0607 14.0134 13.0767V16.1165H18.4982V6.2086L20.9226 16.1191H24.8406L27.2745 6.21807V16.1292H31.7479V0.406377H25.1306ZM14.0153 9.57127C13.458 8.41183 12.6732 7.90446 12.229 7.74461C13.1559 7.33075 13.6444 6.76967 14.0153 5.64941V9.57127Z" fill="#F7E98C"/>
<path d="M39.9252 2.1786C39.8639 1.84435 39.5891 1.31929 38.8182 1.31929C38.2432 1.31929 37.8654 1.68765 37.8654 2.09266C37.8654 2.42754 38.079 2.69481 38.5257 2.78137L39.3755 2.94565C40.4825 3.16174 41.0764 3.88394 41.0764 4.74135C41.0764 5.68027 40.2929 6.62425 38.877 6.62425C37.2614 6.62425 36.5493 5.5817 36.4539 4.71482L37.5533 4.42227C37.6051 5.02695 38.0253 5.56717 38.8846 5.56717C39.5202 5.56717 39.8715 5.24809 39.8715 4.81781C39.8715 4.4665 39.6061 4.18849 39.1322 4.09561L38.2805 3.92312C37.3106 3.72724 36.6845 3.09793 36.6845 2.17923C36.6845 1.09498 37.6544 0.269796 38.8056 0.269796C40.2841 0.269796 40.8509 1.16385 40.988 1.85446L39.9252 2.1786ZM42.7439 4.38057C42.7439 5.147 43.2418 5.57728 43.8262 5.57728C44.4107 5.57728 44.7026 5.1887 44.7961 4.86456L45.8007 5.19881C45.6112 5.90394 44.9509 6.62677 43.8262 6.62677C42.579 6.62677 41.5996 5.68027 41.5996 4.3831C41.5996 3.07518 42.5619 2.13689 43.7896 2.13689C44.9408 2.13689 45.5941 2.84961 45.7736 3.56486L44.75 3.90858C44.6463 3.55728 44.381 3.19586 43.8142 3.19586C43.2348 3.19334 42.7439 3.61604 42.7439 4.38057ZM47.1333 0.168701C47.5288 0.168701 47.8378 0.488414 47.8378 0.881421C47.8378 1.25989 47.5282 1.57645 47.1333 1.57645C46.7479 1.57645 46.4288 1.25989 46.4288 0.881421C46.4288 0.485887 46.7479 0.168701 47.1333 0.168701ZM46.5665 6.49598V2.26705H47.7076V6.49598H46.5665ZM52.6745 5.28474C52.461 6.01452 51.7906 6.62425 50.75 6.62425C49.5911 6.62425 48.5669 5.79084 48.5669 4.36351C48.5669 3.01136 49.564 2.13437 50.6463 2.13437C51.953 2.13437 52.7358 2.9703 52.7358 4.32686C52.7358 4.49114 52.7188 4.663 52.7188 4.6807H49.6941C49.7188 5.23798 50.1927 5.64363 50.7594 5.64363C51.2921 5.64363 51.5846 5.37825 51.7217 4.99914L52.6745 5.28474ZM51.6093 3.89911C51.5916 3.47893 51.3167 3.0657 50.664 3.0657C50.072 3.0657 49.7453 3.51305 49.7188 3.89911H51.6093ZM54.6825 6.49598H53.5414V2.26705H54.6484V2.79085C54.9062 2.35109 55.4117 2.15648 55.8685 2.15648C56.9174 2.15648 57.3976 2.90395 57.3976 3.83276V6.49598H56.2565V4.02674C56.2565 3.55475 56.0258 3.18386 55.4755 3.18386C54.9776 3.18386 54.6857 3.57181 54.6857 4.06086V6.49598H54.6825ZM59.2539 4.38057C59.2539 5.147 59.7531 5.57728 60.3369 5.57728C60.9214 5.57728 61.2133 5.1887 61.3068 4.86456L62.3108 5.19881C62.1212 5.90394 61.461 6.62677 60.3344 6.62677C59.0871 6.62677 58.1103 5.68027 58.1103 4.3831C58.1103 3.07518 59.0726 2.13689 60.3003 2.13689C61.4515 2.13689 62.1042 2.84961 62.2843 3.56486L61.26 3.90858C61.157 3.55728 60.8917 3.19586 60.3249 3.19586C59.7449 3.19334 59.2539 3.61604 59.2539 4.38057ZM66.8746 5.28474C66.6585 6.01452 65.9888 6.62425 64.95 6.62425C63.7912 6.62425 62.7676 5.79084 62.7676 4.36351C62.7676 3.01136 63.764 2.13437 64.8464 2.13437C66.153 2.13437 66.9334 2.9703 66.9334 4.32686C66.9334 4.49114 66.9163 4.663 66.9163 4.6807H63.8917C63.9188 5.23798 64.3902 5.64363 64.9576 5.64363C65.4902 5.64363 65.7821 5.37825 65.9199 4.99914L66.8746 5.28474ZM65.8093 3.89911C65.7922 3.47893 65.5168 3.0657 64.8641 3.0657C64.272 3.0657 63.946 3.51305 63.9188 3.89911H65.8093ZM68.4119 4.99219C68.8485 4.99219 69.2017 5.3435 69.2017 5.77568C69.2017 5.98406 69.1189 6.18391 68.9715 6.33125C68.8242 6.4786 68.6244 6.56138 68.416 6.56138C68.2076 6.56138 68.0078 6.4786 67.8604 6.33125C67.7131 6.18391 67.6303 5.98406 67.6303 5.77568C67.6309 5.3435 67.9822 4.99219 68.4119 4.99219ZM40.5191 14.5728H38.0455L37.54 15.9661H36.2852L38.6223 9.87003H39.9972L42.3148 15.9661H41.0259L40.5191 14.5728ZM38.4404 13.4892H40.1242L39.282 11.1843L38.4404 13.4892ZM42.9498 17.6V11.7346H44.0594V12.2508C44.2489 11.9241 44.7203 11.6392 45.3559 11.6392C46.5931 11.6392 47.3051 12.5851 47.3051 13.8405C47.3051 15.1206 46.5071 16.069 45.3117 16.069C44.7272 16.069 44.2976 15.8353 44.0916 15.5535V17.6H42.9498ZM45.1322 12.6634C44.5484 12.6634 44.077 13.1032 44.077 13.8506C44.077 14.5975 44.5484 15.0448 45.1322 15.0448C45.7161 15.0448 46.1811 14.607 46.1811 13.8506C46.1786 13.1006 45.7167 12.6634 45.1322 12.6634ZM48.0615 17.6V11.7346H49.171V12.2508C49.3605 11.9241 49.8313 11.6392 50.4675 11.6392C51.7047 11.6392 52.4168 12.5851 52.4168 13.8405C52.4168 15.1206 51.6187 16.069 50.4233 16.069C49.8388 16.069 49.4092 15.8353 49.2057 15.5535V17.6H48.0615ZM50.2438 12.6634C49.6594 12.6634 49.1887 13.1032 49.1887 13.8506C49.1887 14.5975 49.6594 15.0448 50.2438 15.0448C50.8283 15.0448 51.2927 14.607 51.2927 13.8506C51.2927 13.1006 50.8283 12.6634 50.2438 12.6634ZM53.1901 15.9635V9.73987H54.3338V15.9635H53.1901ZM56.0745 9.63624C56.47 9.63624 56.7796 9.95596 56.7796 10.349C56.7796 10.7274 56.47 11.044 56.0745 11.044C55.8893 11.044 55.7115 10.9711 55.5797 10.841C55.4478 10.7109 55.3725 10.5342 55.37 10.349C55.37 9.95596 55.6891 9.63624 56.0745 9.63624ZM55.5103 15.9635V11.7346H56.652V15.9635H55.5103ZM61.6505 14.7523C61.437 15.4846 60.7659 16.0937 59.7253 16.0937C58.5665 16.0937 57.5429 15.2609 57.5429 13.8329C57.5429 12.4814 58.5399 11.6044 59.6223 11.6044C60.9283 11.6044 61.7093 12.4397 61.7093 13.7963C61.7093 13.9606 61.6922 14.1331 61.6922 14.1501H58.6701C58.6966 14.7081 59.168 15.1131 59.7354 15.1131C60.268 15.1131 60.5599 14.8477 60.6977 14.4698L61.6505 14.7523ZM60.5871 13.3685C60.5701 12.9484 60.2952 12.5358 59.6419 12.5358C59.048 12.5358 58.7213 12.9831 58.6966 13.3685H60.5871ZM66.6339 15.199C66.6339 15.4846 66.6516 15.7942 66.6686 15.9661H65.5755C65.5483 15.8045 65.5345 15.6409 65.5345 15.477C65.3449 15.8113 64.9152 16.0716 64.3485 16.0716C63.1455 16.0716 62.2861 15.1257 62.2861 13.8431C62.2861 12.6046 63.1208 11.6316 64.3144 11.6316C65.0435 11.6316 65.3872 11.9336 65.5073 12.1573V9.73987H66.6339V15.199ZM64.4856 15.0448C65.0701 15.0448 65.5243 14.5975 65.5243 13.8329C65.5243 13.0785 65.0675 12.6565 64.4862 12.6565C63.9018 12.6565 63.4374 13.0861 63.4374 13.8431C63.4374 14.5975 63.8841 15.0448 64.4856 15.0448ZM71.1269 11.7346H71.9761V12.7493H71.1269V14.5185C71.1269 14.89 71.2988 15.0101 71.6254 15.0101C71.7625 15.0101 71.9173 14.993 71.9761 14.976V15.9218C71.8731 15.9635 71.6665 16.0248 71.3329 16.0248C70.5083 16.0248 69.9927 15.5332 69.9927 14.715V12.75H69.2288V11.7346H69.4449C69.8923 11.7346 70.0983 11.4421 70.0983 11.0642V10.469H71.1294V11.7346H71.1269ZM76.9771 13.8506C76.9771 15.1478 76.025 16.0937 74.7606 16.0937C73.4988 16.0937 72.546 15.1478 72.546 13.8506C72.546 12.5427 73.4988 11.6044 74.7606 11.6044C76.0224 11.6044 76.9771 12.5434 76.9771 13.8506ZM75.836 13.8506C75.836 13.0495 75.3204 12.6463 74.7606 12.6463C74.2034 12.6463 73.6878 13.0495 73.6878 13.8506C73.6878 14.6417 74.2034 15.0518 74.7606 15.0518C75.3204 15.0518 75.836 14.6487 75.836 13.8506ZM79.4868 15.9635V9.87003H80.6722V14.8281H83.3853V15.9635H79.4868ZM84.7355 9.63624C85.1311 9.63624 85.4375 9.95596 85.4375 10.349C85.4375 10.7274 85.1279 11.044 84.7355 11.044C84.5503 11.044 84.3726 10.9711 84.2407 10.841C84.1089 10.7109 84.0335 10.5342 84.031 10.349C84.0304 10.2559 84.0481 10.1636 84.0831 10.0773C84.1182 9.99109 84.17 9.91262 84.2354 9.84642C84.3008 9.78021 84.3787 9.72756 84.4645 9.6915C84.5504 9.65543 84.6425 9.63666 84.7355 9.63624ZM84.1656 15.9635V11.7346H85.3099V15.9635H84.1656ZM88.0053 11.2702V11.7346H88.9582V12.7152H88.006V15.9635H86.8541V12.7152H86.1496V11.7346H86.8541V11.2531C86.8541 10.2972 87.4556 9.68047 88.3914 9.68047C88.6315 9.68047 88.8653 9.72218 88.9582 9.7664V10.73C88.8409 10.6967 88.7192 10.6818 88.5974 10.6857C88.3421 10.6857 88.0053 10.7988 88.0053 11.2702ZM93.333 14.7523C93.1169 15.4846 92.4472 16.0937 91.4084 16.0937C90.2496 16.0937 89.2261 15.2609 89.2261 13.8329C89.2261 12.4814 90.22 11.6044 91.3048 11.6044C92.6115 11.6044 93.3924 12.4397 93.3924 13.7963C93.3924 13.9606 93.3747 14.1331 93.3747 14.1501H90.3501C90.3754 14.7081 90.8493 15.1131 91.416 15.1131C91.9487 15.1131 92.2406 14.8477 92.3783 14.4698L93.333 14.7523ZM92.2677 13.3685C92.2507 12.9484 91.9758 12.5358 91.3225 12.5358C90.7311 12.5358 90.4044 12.9831 90.3773 13.3685H92.2677ZM94.8703 14.4623C95.3069 14.4623 95.6601 14.8136 95.6601 15.2439C95.6601 15.4522 95.5773 15.6521 95.43 15.7994C95.2826 15.9468 95.0828 16.0296 94.8744 16.0296C94.666 16.0296 94.4662 15.9468 94.3188 15.7994C94.1715 15.6521 94.0887 15.4522 94.0887 15.2439C94.0894 14.8136 94.4407 14.4623 94.8703 14.4623Z" fill="#F7E98C"/>
<path d="M97.5386 11.7303V9.87012H98.0321L98.5774 11.2191L99.11 9.87012H99.606V11.7296H99.2503V10.4375L98.7271 11.7296H98.415L97.8924 10.44V11.7296L97.5386 11.7303ZM95.6608 9.87012H97.2025V10.2164H96.613V11.7296H96.2471V10.2164H95.6608V9.87012Z" fill="#F7E98C"/>
</g>
<defs>
<clipPath id="clip0_18_581">
<rect width="100" height="17.6" fill="white"/>
</clipPath>
</defs>
</svg>
