<svg width="100" height="22" viewBox="0 0 100 22" fill="none" xmlns="http://www.w3.org/2000/svg">
<path fill-rule="evenodd" clip-rule="evenodd" d="M56.7044 8.36864H57.9355C58.2717 7.24909 58.6073 6.01748 59.6153 5.23359C60.959 4.22558 62.7504 4.4497 64.3177 4.4497L63.6458 6.80138C63.1981 6.80138 62.8624 6.80138 62.6388 6.91292C61.8544 7.02497 61.967 7.69681 61.7429 8.36864H63.4217L62.7499 10.4962H61.1826L59.1671 17.1025H55.4718L57.3757 10.4962H56.1436L56.7044 8.36864ZM70.9245 11.2801C71.037 10.4962 70.5893 9.93643 69.8049 9.93643C68.6853 9.93643 67.902 10.8324 67.4543 12.4002C67.2301 13.5197 67.2301 14.8634 68.6854 14.8634C69.5813 14.8634 70.1416 14.4157 70.4767 13.5197H74.3962C73.3892 16.207 70.8134 17.3266 68.0135 17.3266C65.1026 17.3266 62.7504 15.7593 63.5348 12.5117C64.3182 9.26511 67.1176 7.47321 70.3652 7.47321C72.7169 7.47321 75.2916 8.48122 74.8439 11.2806L70.9245 11.2801ZM47.2982 11.3916H50.881C51.4413 9.15254 47.97 9.2646 47.2982 11.3916ZM49.8735 14.3036H53.6804C52.1131 17.1025 47.2977 18.3346 44.6104 16.7668C42.2592 15.4232 42.7069 12.5112 44.0506 10.6077C45.7299 8.03247 49.8735 6.46468 52.6724 7.92041C54.6889 9.03996 54.8004 11.2796 54.2407 13.2951H46.8505C46.2902 15.3111 48.866 15.6473 49.8735 14.3036ZM83.0175 7.47269C86.041 7.47269 88.1691 8.92842 87.4972 12.2871C86.7128 15.5347 84.026 17.3261 80.7784 17.4387C77.7549 17.4387 75.5152 15.7588 76.2996 12.5112C77.083 9.26459 79.7714 7.47269 83.0175 7.47269ZM82.5697 9.93643C81.2261 9.93643 80.5542 11.168 80.2191 12.2876C79.995 13.2956 79.7714 14.8634 81.2261 14.8634C83.5783 14.8629 84.6978 9.93643 82.5697 9.93643ZM39.908 4.78536H58.2717L58.1591 5.23359H40.1311C39.7955 5.23359 39.5713 5.56925 39.4593 5.79337L35.9886 18.1105C35.8765 18.3346 36.1001 18.6708 36.4363 18.6708H89.0645C89.3996 18.6708 89.7363 18.3346 89.8479 18.1105L93.2081 5.79337C93.3196 5.56925 93.2081 5.23359 92.8719 5.23359H65.1026L65.2141 4.78536H95.1115C95.4477 4.78536 95.6718 5.12101 95.5592 5.45719L91.4162 20.126C91.4162 20.4622 90.9695 20.7978 90.6328 20.7978H35.4288C34.9811 20.7978 34.757 20.4627 34.869 20.126L39.0121 5.45719C39.1241 5.12101 39.4598 4.78536 39.908 4.78536ZM28.4863 15.8714C28.3743 19.7909 26.1347 21.9174 22.2157 21.9174H4.63598L12.6985 15.8714H28.4863ZM30.5018 9.15254C30.2777 13.0715 28.0381 15.1996 24.1192 15.1996H13.5939L21.6565 9.15254H30.5018ZM22.5519 8.4807L32.8535 0.530235L31.846 4.6733C31.1742 7.02497 29.4949 8.4807 26.9191 8.4807H22.5519ZM17.4013 0.0825195H14.0417C11.3543 0.0825195 9.675 1.76184 9.1147 3.8894L4.41187 21.3576L5.97965 20.2381L10.2348 4.113C10.7945 1.98544 12.4744 1.09001 14.4899 1.09001H17.1777L17.4013 0.0825195ZM24.3433 0.0825195H21.2077C18.6324 0.0825195 16.8411 1.76184 16.2808 3.8894L13.3693 14.5272L14.9366 13.2951L17.4003 4.113C17.9601 1.98544 19.6394 1.09001 21.6554 1.09001H24.0071L24.3433 0.0825195ZM32.5173 0.0825195H28.1507C25.5754 0.0825195 23.784 1.76184 23.2237 3.8894L22.2162 7.80835L23.784 6.57674L24.3438 4.113C24.9036 1.98544 26.5829 1.09001 28.5989 1.09001H31.2863L32.5173 0.0825195Z" fill="#F7E98C"/>
</svg>
