<svg width="100" height="13" viewBox="0 0 100 13" fill="none" xmlns="http://www.w3.org/2000/svg">
<g clip-path="url(#clip0_18_589)">
<path d="M81.3596 7.85779C83.3216 7.84113 84.9836 6.22196 84.9312 4.2861C84.9836 2.2288 83.0978 0.612012 81.0738 0.571533H69.0729V12.3581L61.2152 0.571533H56.5005L50.0715 10.1437L45.4997 4.14323L50.0715 0.571533H45.7855L39.3564 5.71478V0.571533H35.9276V12.5724H39.3564V8.715L42.9281 6.00051L48.0713 12.5724H52.0716L53.9289 9.71507H63.6439L65.5012 12.5724H72.5017V7.85779H77.5021L81.2167 12.5724H85.0741L81.3596 7.85779ZM0.067749 0.571533V12.5724H3.35371V7.57206H15.3546V5.42904H3.35371V2.71455H15.3546V0.571533H0.067749ZM16.2118 0.571533H19.4978V12.5724H16.2118V0.571533Z" fill="#F7E98C"/>
<path d="M58.7863 2.57153L62.2152 7.57191H55.5004L58.7863 2.57153Z" fill="#1E1E1E"/>
<path d="M20.0692 10.2866L21.9265 8.42932C23.71 9.58417 24.9148 10.4771 27.7841 10.4295C30.6295 10.4795 31.8034 9.67465 31.7844 9.00079C31.8796 8.06501 31.3891 7.84357 30.3557 7.71498C29.3366 7.57688 26.5221 7.35305 25.0696 7.14351C23.6647 6.8173 20.986 6.2363 20.9264 3.71468C20.986 1.23593 24.8243 -0.0141657 27.9269 0.000121081C31.1653 0.0739361 33.2178 0.609691 34.9275 1.57167L33.2131 3.71468C31.6106 2.70985 29.5128 2.12885 28.0698 2.14314C26.6554 2.12885 24.6457 2.52888 24.641 3.42895C24.6481 4.04804 24.8267 4.49331 26.4983 4.71476C28.0389 4.85287 30.8081 4.94097 32.4987 5.4291C34.2893 6.01248 35.3632 6.68157 35.3561 8.57219C35.3632 10.3438 33.2654 12.8439 28.0698 12.7154C26.1197 12.6654 22.3241 12.3534 20.0692 10.2866ZM84.6455 10.2866L86.5028 8.42932C88.3124 9.58417 89.5197 10.4771 92.3603 10.4295C95.232 10.4795 96.4059 9.67465 96.5035 9.00079C96.4845 8.06501 95.9939 7.84357 94.932 7.71498C93.939 7.57688 91.1269 7.35305 89.6459 7.14351C88.2672 6.8173 85.5884 6.2363 85.6456 3.71468C85.5908 1.23593 89.4292 -0.0141657 92.6461 0.000121081C95.7701 0.0739361 97.8227 0.609691 99.5037 1.57167L97.7893 3.71468C96.2154 2.70985 94.1176 2.12885 92.6461 2.14314C91.2579 2.12885 89.2506 2.52888 89.2172 3.42895C89.2506 4.04804 89.4292 4.49331 91.0745 4.71476C92.6437 4.85287 95.4106 4.94097 97.2178 5.4291C98.8942 6.01248 99.9657 6.68157 99.9323 8.57219C99.9657 10.3438 97.8679 12.8439 92.6461 12.7154C90.7245 12.6654 86.929 12.3534 84.6455 10.2866Z" fill="#F7E98C"/>
<path d="M79.9308 2.7146C80.7976 2.75984 81.4548 3.41465 81.5024 4.28615C81.4524 5.0362 80.7976 5.69339 79.9308 5.71482H72.5017V2.7146H79.9308Z" fill="#1E1E1E"/>
</g>
<defs>
<clipPath id="clip0_18_589">
<rect width="100" height="12.72" fill="white"/>
</clipPath>
</defs>
</svg>
