<svg width="100" height="22" viewBox="0 0 100 22" fill="none" xmlns="http://www.w3.org/2000/svg">
<path fill-rule="evenodd" clip-rule="evenodd" d="M93.9789 16.9474L97.6073 6.92484H87.5853C86.2894 6.92484 84.8778 7.96138 84.4171 9.22879L81.6815 16.688H76.3245L78.9163 9.92034H81.6519L82.9479 6.34898H80.2699L82.1131 1.48169H77.361L75.5759 6.34898H72.4367L71.1407 9.92034H74.2799L71.8027 16.688H66.331L70.1612 6.57933H65.4963L61.7231 16.9193H57.4026L56.1938 13.0305L63.1633 6.78114H58.2093L52.5939 11.8217H52.1613L55.7907 1.8272H51.4417L45.9389 16.9474H41.9354L45.5353 6.92484H35.5418C34.2459 6.92484 32.8348 7.96138 32.345 9.22879L29.4647 17.1782H25.7206L29.4647 6.89579H21.2569L22.1498 4.41908H14.1142L14.9785 2.05755H1.47025V6.37804H9.07364L3.91842 20.5192H8.23839L12.5298 8.7681H16.2449L11.954 20.5192H16.303L19.6725 11.2448H23.5609L20.1913 20.5192H27.1037L29.321 18.2433C29.3501 19.367 29.9259 20.5192 30.9049 20.5192H34.8793L37.2699 17.9839C37.2123 19.1652 37.8172 20.5192 38.8538 20.5192H42.8282L45.6219 17.7826L44.643 20.5192H48.992L51.5558 13.4912H52.0451L54.2338 20.5192H58.8708L61.4922 17.7541C61.3766 18.9924 62.01 20.4321 63.0761 20.4321H68.8648L71.5438 17.4947C71.313 18.7621 71.9459 20.4321 73.0981 20.4321H78.8878L81.3936 17.6965C81.1918 18.9348 81.8252 20.5192 82.9479 20.5192H86.9228L89.3129 17.9839C89.2553 19.1652 89.8602 20.5192 90.8968 20.5192H98.5297V16.9474H93.9789ZM37.4717 16.8612H34.0446L36.32 10.6114H39.7471L37.4717 16.8612ZM89.5147 16.8612H86.0881L88.3921 10.6114H91.7907L89.5147 16.8612Z" fill="#F7E98C"/>
<path fill-rule="evenodd" clip-rule="evenodd" d="M72.1191 1.4812H67.3385L65.8983 5.42712H70.6214L72.1191 1.4812Z" fill="#F7E98C"/>
</svg>
