<svg width="100" height="44" viewBox="0 0 100 44" fill="none" xmlns="http://www.w3.org/2000/svg">
<g clip-path="url(#clip0_21_627)">
<path d="M100 13.964L73.656 23.972L75.188 20.668L39.488 32.868L41.464 28.78L0.008 44.712L31.136 36.9L28.584 41.812L67.176 27.44L64.972 31.72L100 13.964ZM94.112 1.848C94.3 1.848 94.476 1.832 94.476 1.608C94.476 1.424 94.308 1.392 94.152 1.392H93.852V1.848H94.112ZM93.848 2.676H93.62V1.204H94.184C94.528 1.204 94.7 1.332 94.7 1.62C94.7 1.884 94.536 2 94.32 2.024L94.736 2.672H94.488L94.096 2.036H93.844L93.848 2.676ZM94.116 3.004C94.692 3.004 95.152 2.552 95.152 1.936C95.152 1.332 94.692 0.876 94.116 0.876C93.532 0.876 93.076 1.332 93.076 1.936C93.076 2.552 93.532 3.004 94.116 3.004ZM92.82 1.936C92.82 1.204 93.416 0.664 94.12 0.664C94.816 0.664 95.412 1.204 95.412 1.936C95.412 2.676 94.816 3.22 94.12 3.22C93.412 3.22 92.82 2.676 92.82 1.936ZM23.256 6.088L18.688 9.944C18.688 9.944 16.872 7.904 16.728 7.744C16.568 7.88 12.832 11.048 12.832 11.048L13.364 5.788L0 17.052L9.128 12.668L6.784 32.348C6.784 32.348 9.58 34.416 9.812 34.572C10.048 32.696 12.304 14.668 12.428 13.688L12.436 13.648L15.08 11.416L15.644 11.972L13.516 29.924C13.516 29.924 16.356 32.044 16.54 32.168C16.56 31.992 18.464 15.72 18.916 11.84L21.544 9.616L22.104 10.168L20.052 27.672L23.076 29.9L25.536 8.6L23.256 6.088ZM30.676 10.024L27.524 10.56L27.132 13.648L30.284 13.052L30.676 10.024ZM47.632 11.32L46.364 21.132L45.664 21.884L44.476 20.9L45.656 11.672L42.5 12.44L41.284 22.044L40.352 23.284L39.356 22.404L40.54 12.74L37.372 13.4L36.312 22.188L35 23.972L34.072 23.22L36.12 6.688L33.028 7.188L31.12 23.076L29.548 25.24L28.768 24.592L30.076 14.908L26.92 15.552L25.456 26.776L28.236 28.956L30.972 25.26L33.832 27.548L36.584 23.804L39.536 26.368L42.448 22.516L44.812 24.6L48.904 20.152L50.16 10.772L47.632 11.32ZM55.12 17.772L53.848 19.336L53.168 18.748L54.204 10.58L55.92 11.488L55.12 17.772ZM82.856 6.084L84.348 7.82L82.496 8.84L82.856 6.084ZM90.788 4.46L92.16 6.1L90.46 7.064L90.788 4.46ZM90.992 10.9L90.084 10.136L90.272 8.64L94.516 6.24L91.092 2L87.968 4.728L87.236 10.62L83.076 12.908L82.084 12.096L82.288 10.512L86.904 7.968L83.184 3.48L79.792 6.368L79.076 11.96L77.568 13.42L75.196 8.732L80.512 3.88L78.1 4.232L74.096 7.64L75.048 0L72.156 0.4L70.54 13.476L68.788 15.4L68.376 15.052L69.428 6.756L66.312 7.472L65.34 14.976L63.956 16.652L63.364 16.14L64.408 7.912L61.268 8.536L60.296 16.232L58.84 18.08L58.204 17.52L59.288 8.928L56.156 9.6L56.084 10.268L53.896 9.212L50.824 13.136L49.936 20.144L52.908 22.672L55.636 19.156L57.98 21.148L60.54 17.864L62.74 19.788L65.156 16.624L67.456 18.624L70.572 15.236L72.944 17.116L73.656 11.368L76.152 16.488L79.464 13.264L81.612 15.072L88.012 11.536L89.648 12.948L95.528 9.512L95.688 8.248L90.992 10.9Z" fill="#F7E98C"/>
</g>
<defs>
<clipPath id="clip0_21_627">
<rect width="100" height="44.712" fill="white"/>
</clipPath>
</defs>
</svg>
