<svg width="92" height="22" viewBox="0 0 92 22" fill="none" xmlns="http://www.w3.org/2000/svg">
<g clip-path="url(#clip0_18_568)">
<path fill-rule="evenodd" clip-rule="evenodd" d="M10.672 2.27393C11.6239 2.27393 12.5759 2.37976 13.5279 2.69674L9.8258 10.7359H1.99829C2.10412 5.97602 6.01788 2.27393 10.672 2.27393ZM18.3936 14.9661C16.913 17.7162 14.0571 19.6202 10.672 19.6202C6.01788 19.6202 2.20996 15.9186 1.99829 11.2651H9.5083L7.81601 14.9667L18.3936 14.9661Z" fill="#F7E98C"/>
<path fill-rule="evenodd" clip-rule="evenodd" d="M10.672 1.53316C11.7298 1.53316 12.7876 1.63899 13.8454 2.06233L14.1624 1.21618C13.1046 0.899195 11.9409 0.687012 10.672 0.687012C5.06594 0.687012 0.411865 5.23525 0.411865 10.9471C0.411865 16.5532 5.06594 21.2067 10.672 21.2067C14.9027 21.2067 18.6048 18.6683 20.1918 14.9662H19.2398C17.7592 18.1396 14.4799 20.3606 10.672 20.3606C5.48927 20.3606 1.25801 16.1293 1.25801 10.9466C1.25801 5.76442 5.48927 1.53316 10.672 1.53316ZM20.4029 14.2269H8.87386L14.7969 1.53316C18.3937 3.12014 20.9321 6.7164 20.9321 10.9471C20.9321 12.1113 20.8263 13.1691 20.4029 14.2269ZM18.3937 0.899195H91.5883L91.3766 1.74534H19.2393L18.3937 0.899195ZM18.1815 21.3136H86.0881L86.3002 20.4664H19.1335L18.1815 21.3136Z" fill="#F7E98C"/>
<path fill-rule="evenodd" clip-rule="evenodd" d="M19.9801 19.5149H86.5108L87.0395 17.8226H21.6724L19.9801 19.5149ZM20.1913 2.69727H91.166L90.6368 4.38904H21.8835L20.1913 2.69727Z" fill="#F7E98C"/>
<path fill-rule="evenodd" clip-rule="evenodd" d="M56.048 11.3705C55.6257 11.3705 55.2019 11.6875 55.2019 12.005L54.7796 13.6983H56.6835C57.1058 13.6983 57.5297 13.3803 57.635 12.9575L57.952 11.3705H56.048ZM57.5297 17.2941H59.3273L61.0206 10.7361L61.4429 17.2941H62.5007L67.2612 10.6302L65.3572 17.2941H69.5874L72.9725 5.13H69.7991C69.3758 5.13 68.8476 5.44698 68.5296 5.87032L64.9334 10.6302L64.0872 5.76449C64.0872 5.55334 63.7702 5.13 63.4527 5.13H58.904L58.3748 6.61063H59.9618C60.2788 6.61063 60.2788 7.1398 60.1735 7.35095L57.5297 17.2941ZM76.1449 15.1785L77.4144 10.8419C77.4144 10.5249 77.2027 10.2074 76.7799 10.2074C76.1444 10.2074 75.9338 10.3132 75.8274 10.7366L74.6643 15.179C74.559 15.496 74.7696 15.8135 75.1935 15.8135C75.828 15.8124 76.0396 15.6018 76.1449 15.1785ZM73.0779 17.3994C74.1357 17.3994 75.4051 17.3994 76.1449 16.4479C76.2513 16.8702 76.7805 17.3994 77.6261 17.3994C79.2131 17.5058 79.847 16.9771 81.0102 16.0246L80.5879 15.4954C79.7417 15.9188 79.4237 15.8124 79.6354 14.9663L81.434 8.51407H78.0489L77.7319 9.67772C77.3096 8.61991 75.9343 8.40876 74.9818 8.40876C74.1357 8.40876 73.1832 9.04324 72.8662 9.99522L71.3856 14.9663C70.8569 16.8702 71.8084 17.2941 73.0779 17.3994ZM82.9146 17.2941H85.3472C86.722 17.2941 87.2512 16.5533 87.4629 15.7071L87.7799 14.544H86.1929L86.0876 15.0731C85.9812 15.4954 85.7706 15.7076 85.1351 15.7076C84.7128 15.7076 84.3953 15.3906 84.5006 15.0731L85.7701 10.6302C85.8754 10.2074 86.087 9.99574 86.7215 9.99574C87.1449 9.99574 87.357 10.3127 87.357 10.6302L86.9337 11.7944H88.5207L88.8377 10.4191C89.1546 9.57293 88.5207 8.40928 87.5682 8.40928H84.9244C84.0783 8.40928 83.1258 9.04376 82.9141 9.99574L81.4335 14.8615C80.9054 16.6596 81.7515 17.2941 82.9146 17.2941ZM48.5385 17.2941H50.9711C52.2396 17.2941 52.7688 16.5533 52.9804 15.7071L54.4616 10.4186C54.6722 9.57241 54.1446 8.40876 53.0868 8.40876H50.5473C49.5958 8.40876 48.7497 9.04324 48.4327 9.99522L46.9516 14.861C46.4229 16.6596 47.2691 17.2941 48.5385 17.2941ZM24.8454 17.1877H29.8169C31.6151 17.1877 32.3554 16.2363 32.6729 14.9668L34.471 8.51459C34.788 7.35094 34.2593 6.8223 33.4132 6.8223H31.6151C31.932 6.8223 32.4612 7.24511 32.3554 7.77428L30.3456 14.8615C30.2398 15.2838 30.0281 15.496 29.4994 15.496H28.1241C27.595 15.496 27.278 15.2843 27.4896 14.5445L29.4994 7.4573C29.6053 7.14032 30.1339 6.50583 30.7689 6.50583H34.0477L34.6822 5.02521H27.5955C26.3265 5.02521 25.1629 5.87136 24.8454 7.14084L22.8356 13.91C22.0953 16.3416 23.0472 17.1877 24.8454 17.1877ZM35.9516 17.2941C37.2206 17.2941 38.4901 16.7649 39.2304 16.1299L38.9129 15.2838C38.8071 15.2838 37.0089 16.1299 37.4323 14.544L39.9707 5.02417H36.5861L33.9418 14.7546C33.4132 16.5533 34.6822 17.2941 35.9516 17.2941ZM43.5675 12.1114L43.9903 10.6302C44.0961 10.2074 44.3073 9.99574 44.9423 9.99574C45.3651 9.99574 45.6826 10.3127 45.5768 10.6302L45.1539 12.1114H43.5675ZM41.5577 17.2941C44.6253 17.2941 45.3656 16.2363 46.2118 15.6018L45.5773 14.861C44.7311 15.2833 44.0967 15.6018 43.5675 15.6018C43.1442 15.6018 42.7213 15.2838 42.8267 14.9663L43.1441 13.5915V13.4862H46.3176L47.1637 10.4186C47.3754 9.57241 46.7404 8.40876 45.7884 8.40876H43.1441C42.298 8.40876 41.346 9.04324 41.1344 9.99522L39.6537 14.861C39.1246 16.6596 40.2882 17.2941 41.5577 17.2941ZM51.6061 15.0731L52.8756 10.6302C52.9809 10.3127 52.664 9.99574 52.2401 9.99574C51.712 9.99574 51.5003 10.2074 51.394 10.6302L50.0192 15.0731C49.9138 15.3901 50.2308 15.7076 50.6547 15.7076C51.2886 15.7071 51.5003 15.4954 51.6061 15.0731Z" fill="#F7E98C"/>
</g>
<defs>
<clipPath id="clip0_18_568">
<rect width="92" height="22" fill="white"/>
</clipPath>
</defs>
</svg>
