<svg width="79" height="23" viewBox="0 0 79 23" fill="none" xmlns="http://www.w3.org/2000/svg">
<g clip-path="url(#clip0_21_616)">
<path fill-rule="evenodd" clip-rule="evenodd" d="M10.5814 4.76887C10.9496 4.77516 11.3005 4.92584 11.5587 5.18844C11.8168 5.45104 11.9615 5.80455 11.9615 6.17279C11.9615 6.54103 11.8168 6.89454 11.5587 7.15714C11.3005 7.41974 10.9496 7.57042 10.5814 7.57671H2.25988V21.0417H6.77965V12.0018L12.7355 21.0417H18.2266L12.1568 11.7846C14.1015 11.1051 16.8282 8.8833 16.8282 6.17259C16.8282 2.95572 14.3896 0.347878 11.1728 0.347878H1.1615V4.73649L10.5814 4.76887ZM40.4459 4.52173C43.8767 4.52173 46.6583 7.30335 46.6583 10.7346C46.6583 14.1662 43.8767 16.9478 40.4459 16.9478C37.0147 16.9478 34.2331 14.1662 34.2331 10.7346C34.2331 7.30335 37.0147 4.52173 40.4459 4.52173V0.101562C34.5732 0.101562 29.8125 4.86231 29.8125 10.735C29.8125 16.6072 34.5732 21.3684 40.4459 21.3684C46.3182 21.3684 51.0785 16.6072 51.0785 10.735C51.0785 4.86231 46.3182 0.101562 40.4459 0.101562V4.52173Z" fill="#F7E98C"/>
<path fill-rule="evenodd" clip-rule="evenodd" d="M21.775 21.0412V11.9177L16.2839 3.13143V0.343262H19.9168L24.2251 7.01716L28.5338 0.343262H33.9404L26.1682 12.6779V21.0412H21.775ZM68.4936 21.0412V4.73638H67.3952V0.343262H72.8867V21.0412H68.4936Z" fill="#F7E98C"/>
<path fill-rule="evenodd" clip-rule="evenodd" d="M68.4937 21.0412V4.73638H67.3953V0.343262H72.8868V21.0412H68.4937ZM76.0311 18.7399C76.8405 18.7399 77.4791 19.3781 77.4791 20.2256C77.4791 21.0863 76.8401 21.7199 76.0311 21.7199C75.2131 21.7199 74.5741 21.0859 74.5741 20.2256C74.5741 19.3781 75.2131 18.7399 76.0311 18.7399V18.4412C75.0475 18.4412 74.2147 19.1985 74.2147 20.2256C74.2147 21.2613 75.0471 22.0187 76.0311 22.0187C77.0061 22.0187 77.8385 21.2613 77.8385 20.2256C77.8385 19.1985 77.0061 18.4412 76.0311 18.4412V18.7399Z" fill="#F7E98C"/>
<path fill-rule="evenodd" clip-rule="evenodd" d="M75.6523 19.4639H76.0782C76.2958 19.4639 76.5282 19.511 76.5282 19.7664C76.5282 20.0832 76.2913 20.1024 76.0261 20.1024H75.6523V20.3672H76.0126L76.556 21.2615H76.9061L76.32 20.3528C76.6224 20.3151 76.854 20.1545 76.854 19.7852C76.854 19.3778 76.613 19.1983 76.1257 19.1983H75.3404V21.2611H75.6527V19.4639H75.6523ZM52.2728 21.0414L60.4258 21.0229C64.055 21.0229 66.9968 18.1229 66.9968 14.4941C66.9968 12.7892 66.1308 11.0129 65.0652 9.84526C66.0116 8.80958 66.6726 7.43168 66.6726 5.91895C66.6726 2.70208 64.1488 0.347936 60.9324 0.347936L51.1744 0.343018V4.75089H60.2565C61.0652 4.75089 61.7197 5.36402 61.7197 6.17224C61.7197 6.98045 61.0647 7.59357 60.2565 7.59357H52.2728L56.6659 12.001L59.75 12.0051C61.0365 12.0051 62.0795 13.0379 62.0795 14.3249C62.0795 14.9427 61.8341 15.5352 61.3972 15.9721C60.9603 16.409 60.3678 16.6544 59.75 16.6544H56.6659V12.0019L52.2728 7.59439V21.0414Z" fill="#F7E98C"/>
</g>
<defs>
<clipPath id="clip0_21_616">
<rect width="79" height="22.12" fill="white"/>
</clipPath>
</defs>
</svg>
