<svg width="65" height="29" viewBox="0 0 65 29" fill="none" xmlns="http://www.w3.org/2000/svg">
<path d="M63.5571 10.0977C62.5924 8.80977 60.8015 7.67287 57.8775 7.67287C54.9534 7.67287 52.7576 8.80977 51.2925 10.0977C49.146 11.9544 48.2543 14.1901 47.5614 17.7516C46.8593 21.3497 46.8792 23.586 48.3038 25.442C49.2678 26.73 51.0199 27.8668 53.9439 27.8668C56.8678 27.8668 59.1011 26.73 60.5684 25.442C62.7142 23.586 63.6051 21.3497 64.3065 17.7516C65 14.1901 64.981 11.9544 63.5571 10.0977ZM59.3699 17.7509C58.9717 19.796 58.5179 21.5388 57.2927 22.5624C56.6119 23.1304 55.7934 23.4327 54.8066 23.4327C53.819 23.4327 53.1565 23.1304 52.6973 22.5624C51.8712 21.5388 52.0974 19.796 52.4956 17.7509C52.8938 15.7043 53.3401 14.0002 54.5645 12.9766C55.2459 12.4085 56.0257 12.1055 57.0125 12.1055C58.0001 12.1055 58.7006 12.4085 59.1591 12.9766C59.9867 14.0002 59.769 15.7043 59.3699 17.7509ZM41.8384 21.6914L45.935 0.664467H40.9985L36.8433 21.9951C36.2966 24.798 37.4517 27.6404 41.5156 27.6404H44.3253L45.1369 23.4729H43.2379C41.9846 23.4721 41.6092 22.8654 41.8384 21.6914ZM22.7977 7.89996L17.8551 20.099L16.1685 7.89996H12.3087L5.90727 20.099L5.09405 7.89996H0L2.08404 27.6397H6.39986L12.9522 15.251L14.6776 27.6397H18.9935L26.1001 12.0637L27.6359 12.063C28.8893 12.0576 29.2669 12.6622 29.0438 13.8369L26.3833 27.6518H31.319L34.0374 13.5119C34.5711 10.7059 33.4038 7.86961 29.3408 7.88784L22.7977 7.89996ZM32.7102 6.21711C34.3641 6.21711 35.7057 4.87909 35.7057 3.22897C35.7057 1.57957 34.3641 0.241455 32.7102 0.241455C31.0571 0.241455 29.7162 1.57875 29.7162 3.22897C29.7162 4.87919 31.0571 6.21711 32.7102 6.21711Z" fill="#F7E98C"/>
</svg>
