<svg width="40" height="40" viewBox="0 0 40 40" fill="none" xmlns="http://www.w3.org/2000/svg">
<g clip-path="url(#clip0_4_57)">
<path d="M20 40C31.0457 40 40 31.0457 40 20C40 8.95432 31.0457 0 20 0C8.95432 0 0 8.95432 0 20C0 31.0457 8.95432 40 20 40Z" fill="#DDB04C"/>
<path d="M8.3237 19.8266C8.3237 19.8266 18.3237 15.7226 21.7919 14.2774C23.1214 13.6994 27.63 11.8497 27.63 11.8497C27.63 11.8497 29.711 11.0405 29.5375 13.0058C29.4797 13.815 29.0173 16.6474 28.5549 19.711C27.8612 24.0462 27.1098 28.7861 27.1098 28.7861C27.1098 28.7861 26.9942 30.1156 26.0115 30.3468C25.0289 30.578 23.4103 29.5376 23.1214 29.3063C22.8901 29.133 18.7861 26.5318 17.2832 25.2601C16.8786 24.9133 16.4162 24.2197 17.341 23.4104C19.4219 21.5029 21.9075 19.133 23.4103 17.6301C24.104 16.9364 24.7976 15.3179 21.9075 17.2832C17.8035 20.1156 13.7572 22.7746 13.7572 22.7746C13.7572 22.7746 12.8323 23.3526 11.0983 22.8323C9.3641 22.3122 7.34098 21.6185 7.34098 21.6185C7.34098 21.6185 5.95378 20.7514 8.3237 19.8266Z" fill="white"/>
</g>
<defs>
<clipPath id="clip0_4_57">
<rect width="40" height="40" fill="white"/>
</clipPath>
</defs>
</svg>
