<svg width="40" height="40" viewBox="0 0 40 40" fill="none" xmlns="http://www.w3.org/2000/svg">
<g clip-path="url(#clip0_4_51)">
<path d="M35 0H5C2.23858 0 0 2.23858 0 5V35C0 37.7614 2.23858 40 5 40H35C37.7614 40 40 37.7614 40 35V5C40 2.23858 37.7614 0 35 0Z" fill="#E1BA57"/>
<path fill-rule="evenodd" clip-rule="evenodd" d="M32.9621 26.9888C32.0092 26.2216 30.9908 25.533 29.9884 24.8296C27.9892 23.4255 26.1606 23.3163 24.6688 25.5754C23.831 26.8437 22.6583 26.8992 21.4321 26.3428C18.0516 24.81 15.4412 22.4483 13.9121 19.0123C13.2357 17.4922 13.2446 16.1293 14.8272 15.0541C15.6651 14.4855 16.5092 13.8127 16.4417 12.5703C16.3536 10.9503 12.4203 5.53649 10.867 4.96508C10.2242 4.72859 9.58417 4.74398 8.93026 4.96375C5.28808 6.18859 3.77948 9.18399 5.22425 12.7307C9.5344 23.3121 17.1196 30.6785 27.561 35.1746C28.1563 35.4306 28.8176 35.533 29.1525 35.6248C31.5296 35.6488 34.3144 33.3584 35.1186 31.0855C35.8929 28.8988 34.2565 28.0308 32.9621 26.9888ZM21.2547 6.04992C28.8881 7.22375 32.4085 10.8534 33.3805 18.5417C33.4707 19.2519 33.2061 20.3205 34.2193 20.3402C35.2782 20.3604 35.0231 19.3076 35.032 18.5967C35.1215 11.3558 28.8078 4.64313 21.4754 4.39563C20.9222 4.47523 19.7775 4.01414 19.7061 5.25406C19.6585 6.09 20.6223 5.95266 21.2547 6.04992Z" fill="white"/>
<path fill-rule="evenodd" clip-rule="evenodd" d="M22.7479 8.15797C22.0136 8.06953 21.0443 7.72359 20.8728 8.74234C20.6936 9.81164 21.7739 9.70305 22.4681 9.85844C27.1826 10.9121 28.8242 12.628 29.6004 17.3046C29.7138 17.9864 29.4886 19.0476 30.6472 18.8717C31.5059 18.7409 31.1957 17.8313 31.2675 17.3C31.3056 12.8102 27.4583 8.72359 22.7479 8.15797Z" fill="white"/>
<path fill-rule="evenodd" clip-rule="evenodd" d="M23.1807 11.8294C22.6906 11.8415 22.2096 11.8945 22.0294 12.4183C21.7589 13.2011 22.328 13.3877 22.9073 13.4808C24.8413 13.7913 25.8591 14.9316 26.0523 16.8602C26.1045 17.3837 26.4367 17.8078 26.9423 17.7481C27.643 17.6645 27.7064 17.0409 27.6849 16.4486C27.7195 14.2819 25.2705 11.7775 23.1807 11.8294Z" fill="white"/>
</g>
<defs>
<clipPath id="clip0_4_51">
<rect width="40" height="40" fill="white"/>
</clipPath>
</defs>
</svg>
